<mxfile host="app.diagrams.net" modified="2023-02-28T08:56:57.877Z" agent="5.0 (Windows NT 10.0; Win64; x64) AppleWebKit/537.36 (KHTML, like Gecko) Chrome/100.0.4896.127 Safari/537.36" etag="fS2AHZvPQQne4UQdumuo" version="20.8.23" type="github">
  <diagram name="第 1 页" id="i242wir0LVvrTrvufnnq">
    <mxGraphModel dx="1728" dy="890" grid="1" gridSize="10" guides="1" tooltips="1" connect="1" arrows="1" fold="1" page="1" pageScale="1" pageWidth="827" pageHeight="1169" math="0" shadow="0">
      <root>
        <mxCell id="0" />
        <mxCell id="1" parent="0" />
        <mxCell id="SfL-1dqMt8eLdVgTVKJM-1" value="" style="rounded=1;whiteSpace=wrap;html=1;dashed=1;" vertex="1" parent="1">
          <mxGeometry x="194" y="320" width="496" height="90" as="geometry" />
        </mxCell>
        <mxCell id="SfL-1dqMt8eLdVgTVKJM-2" value="" style="edgeStyle=orthogonalEdgeStyle;rounded=0;orthogonalLoop=1;jettySize=auto;html=1;fontSize=14;" edge="1" parent="1" source="SfL-1dqMt8eLdVgTVKJM-3" target="SfL-1dqMt8eLdVgTVKJM-5">
          <mxGeometry relative="1" as="geometry">
            <Array as="points">
              <mxPoint x="370" y="365" />
              <mxPoint x="370" y="365" />
            </Array>
          </mxGeometry>
        </mxCell>
        <mxCell id="SfL-1dqMt8eLdVgTVKJM-3" value="&lt;font style=&quot;font-size: 14px;&quot;&gt;数据接收&lt;/font&gt;" style="rounded=1;whiteSpace=wrap;html=1;fillColor=#dae8fc;strokeColor=#6c8ebf;" vertex="1" parent="1">
          <mxGeometry x="240" y="345" width="110" height="40" as="geometry" />
        </mxCell>
        <mxCell id="SfL-1dqMt8eLdVgTVKJM-4" value="" style="edgeStyle=orthogonalEdgeStyle;rounded=0;orthogonalLoop=1;jettySize=auto;html=1;fontSize=14;" edge="1" parent="1" source="SfL-1dqMt8eLdVgTVKJM-5" target="SfL-1dqMt8eLdVgTVKJM-6">
          <mxGeometry relative="1" as="geometry" />
        </mxCell>
        <mxCell id="SfL-1dqMt8eLdVgTVKJM-5" value="&lt;span style=&quot;font-size: 14px;&quot;&gt;地址学习&lt;/span&gt;" style="rounded=1;whiteSpace=wrap;html=1;fillColor=#ffe6cc;strokeColor=#d79b00;" vertex="1" parent="1">
          <mxGeometry x="384" y="345" width="110" height="40" as="geometry" />
        </mxCell>
        <mxCell id="SfL-1dqMt8eLdVgTVKJM-6" value="&lt;font style=&quot;font-size: 14px;&quot;&gt;数据发送&lt;/font&gt;" style="rounded=1;whiteSpace=wrap;html=1;fillColor=#dae8fc;strokeColor=#6c8ebf;" vertex="1" parent="1">
          <mxGeometry x="530" y="345" width="110" height="40" as="geometry" />
        </mxCell>
        <mxCell id="SfL-1dqMt8eLdVgTVKJM-7" value="&lt;font style=&quot;font-size: 14px;&quot;&gt;队列调度&lt;/font&gt;" style="rounded=1;whiteSpace=wrap;html=1;fillColor=#d5e8d4;strokeColor=#82b366;" vertex="1" parent="1">
          <mxGeometry x="387" y="455" width="110" height="40" as="geometry" />
        </mxCell>
        <mxCell id="SfL-1dqMt8eLdVgTVKJM-8" value="" style="edgeStyle=orthogonalEdgeStyle;rounded=0;orthogonalLoop=1;jettySize=auto;html=1;fontSize=14;entryX=0;entryY=0.5;entryDx=0;entryDy=0;" edge="1" parent="1" target="SfL-1dqMt8eLdVgTVKJM-3">
          <mxGeometry relative="1" as="geometry">
            <mxPoint x="160" y="365" as="sourcePoint" />
            <mxPoint x="394" y="375" as="targetPoint" />
            <Array as="points">
              <mxPoint x="150" y="365" />
            </Array>
          </mxGeometry>
        </mxCell>
        <mxCell id="SfL-1dqMt8eLdVgTVKJM-9" value="" style="edgeStyle=orthogonalEdgeStyle;rounded=0;orthogonalLoop=1;jettySize=auto;html=1;fontSize=14;" edge="1" parent="1">
          <mxGeometry relative="1" as="geometry">
            <mxPoint x="640" y="364.69" as="sourcePoint" />
            <mxPoint x="720" y="365" as="targetPoint" />
            <Array as="points">
              <mxPoint x="650" y="364.69" />
            </Array>
          </mxGeometry>
        </mxCell>
        <mxCell id="SfL-1dqMt8eLdVgTVKJM-10" value="网络数据" style="text;html=1;strokeColor=none;fillColor=none;align=center;verticalAlign=middle;whiteSpace=wrap;rounded=0;fontSize=14;" vertex="1" parent="1">
          <mxGeometry x="620" y="417.5" width="60" height="30" as="geometry" />
        </mxCell>
        <mxCell id="SfL-1dqMt8eLdVgTVKJM-11" value="" style="edgeStyle=orthogonalEdgeStyle;rounded=0;orthogonalLoop=1;jettySize=auto;html=1;fontSize=14;" edge="1" parent="1">
          <mxGeometry relative="1" as="geometry">
            <mxPoint x="560" y="432.08000000000004" as="sourcePoint" />
            <mxPoint x="610" y="432.39000000000004" as="targetPoint" />
            <Array as="points">
              <mxPoint x="540" y="432.08000000000004" />
            </Array>
          </mxGeometry>
        </mxCell>
        <mxCell id="SfL-1dqMt8eLdVgTVKJM-12" value="" style="html=1;shadow=0;dashed=0;align=center;verticalAlign=middle;shape=mxgraph.arrows2.arrow;dy=0.62;dx=14.38;direction=north;notch=0;fontSize=14;fillColor=#1ba1e2;fontColor=#ffffff;strokeColor=#006EAF;" vertex="1" parent="1">
          <mxGeometry x="419" y="410" width="40" height="45" as="geometry" />
        </mxCell>
        <mxCell id="SfL-1dqMt8eLdVgTVKJM-13" value="&lt;span style=&quot;font-size: 14px;&quot;&gt;其他业务子系统&lt;/span&gt;" style="rounded=1;whiteSpace=wrap;html=1;fillColor=#ffe6cc;strokeColor=#d79b00;" vertex="1" parent="1">
          <mxGeometry x="384" y="230" width="110" height="40" as="geometry" />
        </mxCell>
        <mxCell id="SfL-1dqMt8eLdVgTVKJM-14" value="" style="endArrow=classic;startArrow=classic;html=1;rounded=0;entryX=0.5;entryY=1;entryDx=0;entryDy=0;exitX=0.5;exitY=0;exitDx=0;exitDy=0;" edge="1" parent="1" source="SfL-1dqMt8eLdVgTVKJM-5" target="SfL-1dqMt8eLdVgTVKJM-13">
          <mxGeometry width="50" height="50" relative="1" as="geometry">
            <mxPoint x="400" y="410" as="sourcePoint" />
            <mxPoint x="450" y="360" as="targetPoint" />
          </mxGeometry>
        </mxCell>
        <mxCell id="SfL-1dqMt8eLdVgTVKJM-16" value="传输层数据" style="edgeLabel;html=1;align=center;verticalAlign=middle;resizable=0;points=[];" vertex="1" connectable="0" parent="SfL-1dqMt8eLdVgTVKJM-14">
          <mxGeometry x="0.1905" y="-1" relative="1" as="geometry">
            <mxPoint x="-1" as="offset" />
          </mxGeometry>
        </mxCell>
      </root>
    </mxGraphModel>
  </diagram>
</mxfile>
